<?xml version="1.0" standalone="no"?>
<!DOCTYPE svg PUBLIC "-//W3C//DTD SVG 20010904//EN"
 "http://www.w3.org/TR/2001/REC-SVG-20010904/DTD/svg10.dtd">
<svg version="1.0" xmlns="http://www.w3.org/2000/svg"
 width="1600.000000pt" height="155.000000pt" viewBox="0 0 1600.000000 155.000000"
 preserveAspectRatio="xMidYMid meet">

<g transform="translate(0.000000,155.000000) scale(0.100000,-0.100000)"
fill="#000000" stroke="none">
<path d="M15330 1523 c-24 -3 -48 -9 -52 -16 -5 -8 -11 -7 -22 2 -12 10 -20
10 -29 3 -16 -13 -99 -12 -108 1 -10 14 -29 -2 -29 -24 0 -15 -7 -19 -34 -19
-25 0 -38 -6 -50 -25 -16 -25 -46 -34 -46 -15 0 6 -26 10 -58 10 -67 0 -120
-23 -162 -70 -15 -16 -33 -30 -42 -30 -8 0 -27 -13 -43 -30 -30 -31 -45 -31
-45 1 0 26 -9 24 -42 -8 -26 -24 -28 -25 -33 -7 -18 54 -45 75 -75 56 -25 -15
-60 -16 -60 -1 0 7 -9 9 -24 5 -18 -4 -25 -1 -29 14 -6 24 -39 27 -57 5 -7 -8
-25 -15 -41 -15 -15 0 -31 -4 -34 -10 -3 -5 -26 -10 -49 -10 -27 0 -48 -6 -56
-15 -17 -20 -93 -20 -110 1 -12 13 -16 12 -37 -12 -13 -15 -23 -32 -23 -39 0
-24 -37 -45 -77 -45 -25 0 -46 -6 -54 -16 -9 -11 -22 -14 -44 -10 -20 4 -38 1
-50 -9 -14 -10 -45 -14 -99 -15 -73 0 -82 -2 -108 -27 -22 -21 -31 -24 -40
-15 -21 21 -43 13 -83 -28 -37 -38 -42 -40 -102 -40 -35 0 -72 6 -83 13 -16 9
-22 9 -28 0 -4 -6 -23 -13 -42 -15 -27 -2 -36 -8 -38 -25 -2 -12 -13 -25 -25
-29 -12 -4 -25 -11 -28 -17 -10 -14 -29 1 -29 22 0 30 -33 51 -81 51 -25 0
-50 -5 -57 -12 -9 -9 -12 -7 -12 9 0 12 5 25 10 28 16 10 11 25 -9 25 -10 0
-24 7 -31 15 -12 14 -15 14 -30 0 -9 -8 -29 -15 -43 -15 -26 0 -76 -41 -103
-86 -10 -16 -15 -17 -33 -6 -26 15 -267 17 -276 2 -3 -5 -19 -10 -34 -10 -16
0 -34 -7 -41 -15 -7 -8 -19 -15 -27 -15 -7 0 -25 -7 -39 -16 -23 -15 -26 -15
-43 0 -12 11 -36 16 -74 16 -51 0 -57 -2 -57 -20 0 -25 -27 -37 -51 -22 -13 9
-25 8 -48 -4 -17 -8 -33 -19 -36 -25 -4 -5 -22 -9 -41 -9 -22 0 -37 -6 -40
-15 -8 -19 -38 -19 -54 0 -11 13 -16 12 -38 -10 -14 -14 -36 -25 -52 -25 -15
0 -33 -7 -40 -15 -8 -10 -31 -15 -71 -15 -35 0 -61 -5 -66 -12 -4 -7 -16 -19
-26 -27 -16 -13 -20 -13 -27 0 -7 11 -18 5 -53 -29 -45 -44 -57 -45 -57 -5 0
23 -3 24 -62 21 -56 -3 -63 -5 -68 -26 -7 -30 -23 -30 -30 0 -3 13 -15 25 -25
27 -11 2 -23 8 -27 14 -5 8 -17 2 -36 -16 -16 -16 -39 -27 -56 -27 -16 0 -36
-10 -50 -25 -28 -30 -40 -32 -33 -4 6 21 2 24 -50 33 -26 4 -33 1 -38 -14 -6
-18 -16 -20 -102 -20 -75 0 -100 4 -115 16 -16 16 -18 16 -24 0 -5 -12 -20
-16 -69 -16 -47 0 -64 -4 -69 -15 -3 -10 -19 -15 -46 -15 -36 0 -54 -6 -100
-32 -8 -4 -22 -11 -30 -14 -8 -3 -24 -10 -35 -16 -14 -8 -20 -8 -23 1 -5 14
-49 15 -57 1 -8 -13 -25 -13 -25 0 0 6 7 10 15 10 8 0 15 4 15 9 0 15 -20 24
-51 23 -16 0 -31 4 -34 9 -11 17 -95 10 -116 -10 -19 -18 -19 -20 -3 -29 35
-19 3 -32 -81 -32 -46 0 -87 -5 -90 -10 -9 -14 -52 -12 -58 3 -3 8 -14 3 -34
-15 -19 -19 -40 -28 -61 -28 -18 0 -32 -4 -32 -8 0 -10 -71 -42 -93 -42 -8 0
-17 6 -20 13 -3 9 -7 9 -18 0 -8 -6 -35 -13 -59 -15 -43 -3 -45 -5 -50 -38 -5
-34 -7 -35 -52 -38 -25 -2 -52 -10 -58 -18 -16 -18 -64 -18 -80 1 -16 19 -34
19 -50 0 -7 -8 -20 -15 -30 -15 -10 0 -23 -7 -30 -15 -7 -8 -21 -15 -31 -15
-11 0 -19 -4 -19 -10 0 -5 -23 -10 -50 -10 -36 0 -52 -4 -56 -15 -9 -24 -43
-18 -56 10 -12 26 -32 33 -43 15 -3 -6 -21 -10 -39 -10 -19 0 -39 -7 -46 -15
-17 -21 -27 -19 -36 7 l-7 23 -8 -23 c-7 -18 -16 -22 -52 -22 -27 0 -49 -6
-57 -15 -7 -8 -20 -15 -29 -15 -9 0 -22 -5 -29 -12 -9 -9 -15 -9 -23 -1 -9 9
-17 8 -34 -3 -13 -8 -40 -14 -61 -14 -22 1 -49 -1 -61 -5 -16 -5 -24 -1 -33
15 -9 16 -15 19 -23 11 -14 -14 -104 -15 -112 -1 -3 6 -44 10 -89 10 -62 0
-87 4 -96 15 -9 11 -36 15 -109 15 -68 1 -102 5 -115 15 -13 10 -43 15 -82 15
-35 0 -66 5 -69 10 -3 6 -37 10 -74 10 -49 0 -72 4 -81 15 -7 8 -27 15 -45 15
-20 0 -35 6 -39 15 -4 11 -20 15 -56 15 -27 0 -50 5 -50 10 0 6 -8 10 -19 10
-10 0 -24 7 -31 15 -7 9 -29 15 -55 15 -26 0 -48 6 -55 15 -7 9 -29 15 -51 15
-21 0 -41 4 -44 10 -3 5 -28 10 -54 10 -31 0 -53 5 -61 15 -15 18 -30 11 -30
-16 0 -20 -15 -26 -25 -9 -9 14 -52 12 -58 -3 -3 -7 -21 4 -50 32 -40 39 -46
41 -55 25 -9 -16 -12 -15 -36 11 -20 22 -29 26 -38 17 -15 -15 -64 -16 -73 -2
-3 6 -17 10 -29 10 -13 0 -29 7 -36 15 -10 12 -16 13 -27 4 -10 -9 -17 -9 -25
-1 -7 7 -25 12 -41 12 -17 0 -35 7 -41 16 -8 10 -28 16 -59 16 -26 1 -47 5
-47 10 0 4 -16 8 -35 8 -22 0 -38 6 -41 15 -4 9 -19 15 -39 15 -18 0 -38 7
-45 15 -7 9 -29 15 -55 15 -26 0 -48 6 -55 15 -7 8 -24 15 -39 15 -15 0 -32 5
-39 12 -8 8 -15 8 -28 -3 -13 -11 -18 -11 -21 -2 -3 7 -19 13 -37 13 -23 0
-41 9 -61 30 -26 28 -34 30 -96 30 -37 0 -71 5 -74 10 -3 6 -21 10 -39 10 -19
0 -39 7 -46 15 -7 8 -18 15 -25 15 -7 0 -26 7 -41 15 -16 8 -37 15 -46 15 -10
0 -18 5 -18 10 0 6 -26 10 -59 10 -40 0 -63 5 -71 15 -7 8 -20 15 -30 15 -10
0 -23 7 -30 15 -8 10 -31 15 -71 15 -33 0 -59 4 -59 10 0 13 -37 13 -45 0 -11
-18 -47 -11 -81 15 -20 15 -46 25 -67 25 -19 0 -40 7 -47 15 -7 8 -28 15 -46
15 -19 0 -34 5 -34 10 0 6 -40 10 -99 10 -75 0 -101 4 -111 15 -7 8 -20 15
-30 15 -10 0 -23 7 -30 15 -7 8 -21 15 -30 15 -10 0 -20 6 -23 13 -3 9 -8 9
-21 -2 -13 -11 -20 -11 -28 -3 -7 7 -38 12 -70 12 -43 0 -60 4 -64 15 -4 9
-19 15 -38 15 -18 0 -37 5 -44 12 -9 9 -15 9 -24 0 -16 -16 -50 -15 -74 3 -27
20 -152 20 -182 -1 -18 -12 -54 -15 -199 -15 -156 1 -177 -1 -189 -17 -11 -15
-16 -16 -46 -3 -19 9 -76 16 -134 19 -82 3 -103 0 -113 -12 -9 -10 -30 -16
-57 -16 -23 0 -46 -4 -49 -10 -4 -6 -53 -10 -114 -10 -84 0 -111 -3 -121 -15
-8 -10 -31 -15 -69 -15 -31 0 -62 -5 -69 -12 -9 -9 -15 -9 -24 0 -7 7 -41 12
-80 12 -63 0 -71 -3 -92 -27 -20 -23 -26 -25 -39 -14 -20 16 -370 17 -375 1
-5 -14 -45 -13 -59 1 -9 9 -18 5 -37 -16 -23 -25 -27 -26 -41 -11 -12 12 -35
16 -85 16 -38 0 -72 5 -75 10 -9 14 -68 13 -83 -2 -9 -9 -15 -9 -24 0 -16 16
-81 15 -96 0 -10 -10 -17 -10 -32 0 -11 6 -51 12 -89 12 -49 0 -72 4 -81 15
-16 19 -66 19 -74 0 -7 -20 -60 -20 -76 0 -7 8 -26 15 -42 15 -16 0 -36 7 -44
15 -19 19 -29 19 -48 0 -19 -19 -40 -19 -56 0 -9 11 -35 15 -109 15 -64 0
-102 4 -110 12 -11 11 -14 11 -18 0 -6 -14 -49 -16 -58 -2 -3 6 -17 10 -30 10
-13 0 -27 -4 -30 -10 -8 -13 -125 -13 -125 0 0 6 -15 10 -34 10 -18 0 -39 7
-46 15 -7 9 -29 15 -55 15 -26 0 -48 6 -55 15 -7 8 -21 15 -31 15 -11 0 -19 5
-19 10 0 6 -37 10 -90 10 -71 0 -92 3 -96 15 -4 10 -21 15 -54 15 -33 0 -50 5
-54 15 -23 60 -26 -21 -26 -655 l0 -670 8000 0 8000 0 0 701 0 701 -24 -6
c-17 -4 -26 -1 -30 10 -6 15 -8 15 -26 -1 -21 -19 -50 -14 -50 8 0 8 -7 20
-15 27 -8 7 -15 20 -15 30 0 9 -9 25 -20 35 -16 15 -22 16 -36 5 -13 -11 -17
-11 -24 0 -7 11 -11 11 -24 1 -13 -11 -19 -11 -31 -1 -13 11 -20 8 -41 -15
-20 -22 -31 -26 -52 -21 -15 4 -52 12 -82 17 -30 6 -65 17 -77 25 -22 14 -33
14 -123 7z"/>
</g>
</svg>
