<?xml version="1.0" standalone="no"?>
<!DOCTYPE svg PUBLIC "-//W3C//DTD SVG 20010904//EN"
 "http://www.w3.org/TR/2001/REC-SVG-20010904/DTD/svg10.dtd">
<svg version="1.0" xmlns="http://www.w3.org/2000/svg"
 width="1600.000000pt" height="198.000000pt" viewBox="0 0 1600.000000 198.000000"
 preserveAspectRatio="xMidYMid meet">

<g transform="translate(0.000000,198.000000) scale(0.100000,-0.100000)"
fill="#000000" stroke="none">
<path d="M7635 1960 c-4 -12 -15 -20 -28 -20 -13 0 -34 -11 -47 -25 -14 -14
-34 -34 -45 -45 -25 -27 -128 -78 -171 -86 -19 -3 -37 -10 -40 -15 -3 -5 -16
-9 -29 -9 -13 0 -27 -4 -30 -10 -3 -5 -21 -10 -38 -10 -18 0 -42 -7 -54 -15
-15 -11 -45 -15 -103 -14 -75 1 -84 -1 -109 -25 -15 -14 -34 -26 -42 -26 -9 0
-26 -11 -39 -25 -13 -14 -31 -25 -41 -25 -10 0 -31 11 -47 25 -17 14 -39 25
-50 25 -11 0 -35 12 -52 26 -28 24 -34 25 -55 14 -14 -7 -43 -35 -65 -62 -30
-35 -48 -48 -68 -48 -15 0 -36 -7 -46 -15 -11 -8 -34 -15 -50 -15 -17 0 -42
-9 -56 -19 -16 -13 -30 -17 -40 -11 -9 5 -22 5 -31 -1 -7 -5 -28 -9 -45 -9
-34 0 -94 -53 -94 -83 0 -19 -30 -23 -47 -6 -5 5 -34 9 -64 7 -51 -3 -54 -5
-57 -30 -4 -30 -12 -34 -44 -17 -16 8 -19 8 -13 -1 5 -9 2 -10 -13 -6 -14 5
-26 0 -40 -19 -34 -42 -112 -31 -112 17 0 23 -44 52 -70 45 -15 -4 -22 1 -26
19 -5 18 -13 24 -34 24 -18 0 -33 8 -43 24 -46 70 -86 75 -134 16 -18 -21 -33
-43 -33 -48 0 -17 -35 -40 -65 -44 -24 -2 -31 -9 -35 -33 -4 -23 -11 -31 -32
-33 -20 -2 -32 5 -53 32 -15 20 -33 36 -40 36 -7 0 -35 -16 -63 -35 -28 -19
-63 -37 -77 -41 -15 -4 -35 -20 -44 -35 -19 -33 -41 -38 -41 -9 0 11 -5 20
-11 20 -11 0 -61 41 -139 113 -19 18 -51 39 -70 46 -46 17 -81 32 -100 41 -8
4 -29 5 -46 3 -18 -3 -35 0 -38 6 -9 14 -63 14 -71 1 -4 -6 -15 -8 -25 -5 -10
3 -21 1 -25 -5 -9 -15 -25 -2 -25 21 0 18 -6 19 -60 16 -49 -2 -65 -8 -89 -31
-25 -24 -37 -28 -87 -27 -127 0 -132 1 -136 19 -8 29 -124 62 -216 62 -43 0
-83 5 -89 11 -6 6 -26 9 -44 7 -26 -2 -35 -8 -37 -26 -3 -18 -8 -21 -28 -16
-13 3 -31 1 -39 -6 -11 -9 -17 -6 -29 19 -25 46 -67 71 -123 71 -59 0 -73 -12
-73 -64 0 -48 -21 -75 -55 -68 -14 2 -25 8 -25 12 0 5 -18 1 -40 -7 -37 -15
-41 -15 -53 1 -11 15 -16 14 -50 -17 -20 -19 -37 -41 -37 -50 0 -8 -7 -20 -15
-27 -8 -7 -15 -19 -15 -26 0 -21 -16 -17 -32 8 l-15 22 -28 -23 c-20 -15 -37
-20 -53 -16 -16 4 -32 -2 -53 -20 -17 -14 -35 -25 -41 -25 -5 0 -23 -10 -40
-21 -25 -18 -32 -19 -40 -8 -7 10 -8 8 -3 -8 6 -21 -10 -60 -30 -75 -17 -13
-89 -8 -109 7 -24 18 -53 4 -67 -31 -8 -23 -13 -25 -47 -20 -20 3 -55 2 -77
-2 -36 -7 -40 -10 -40 -38 0 -27 -3 -29 -28 -26 -31 5 -82 -13 -112 -38 -11
-10 -30 -21 -42 -25 -13 -3 -23 -11 -23 -16 0 -5 -13 -9 -29 -9 -16 0 -34 -7
-41 -15 -7 -8 -21 -15 -31 -15 -10 0 -21 -5 -24 -10 -12 -19 -84 -60 -105 -60
-11 0 -28 -4 -38 -9 -52 -26 -71 -33 -81 -27 -7 5 -11 -2 -11 -17 0 -32 -8
-37 -36 -27 -18 7 -29 4 -53 -15 -25 -22 -39 -25 -104 -25 -54 0 -78 -4 -87
-15 -7 -8 -18 -15 -25 -15 -7 0 -29 -11 -49 -25 -20 -14 -43 -25 -50 -25 -8 0
-19 -7 -26 -15 -7 -8 -27 -15 -45 -15 -18 0 -38 -7 -45 -15 -7 -8 -18 -15 -25
-15 -6 0 -20 -9 -30 -20 -10 -11 -24 -20 -32 -20 -7 0 -13 -9 -13 -20 0 -15
-15 -27 -54 -46 -30 -14 -66 -39 -80 -55 -14 -16 -31 -29 -37 -29 -6 0 -9 -7
-5 -15 4 -11 -1 -15 -19 -15 -17 0 -36 -16 -70 -61 -41 -53 -50 -59 -74 -54
-21 4 -31 -1 -54 -30 -26 -33 -31 -35 -87 -35 -32 0 -62 5 -65 10 -3 6 -43 10
-88 10 -52 1 -91 6 -107 15 -14 8 -48 14 -77 15 -29 0 -64 5 -78 12 -19 8 -31
8 -48 0 -12 -7 -71 -13 -132 -14 l-110 -3 -3 -157 -3 -158 8001 0 8000 0 0
502 c0 390 -3 499 -12 490 -17 -17 -73 -15 -88 3 -7 8 -18 15 -25 15 -7 0 -15
7 -18 15 -4 8 -21 18 -39 23 -22 5 -34 15 -36 29 -2 11 -19 35 -38 53 -18 19
-34 44 -34 55 0 27 -32 56 -95 85 -60 28 -76 28 -114 1 -33 -24 -52 -26 -68
-10 -6 6 -32 12 -56 13 -25 0 -49 4 -53 9 -10 10 -52 9 -58 -1 -3 -5 -45 -10
-93 -11 -108 -2 -160 -6 -239 -16 -56 -7 -63 -6 -73 12 -5 11 -24 26 -41 33
-28 11 -33 11 -54 -9 -14 -13 -36 -21 -57 -21 -19 0 -45 -9 -58 -19 -18 -13
-35 -17 -62 -14 -30 4 -39 2 -48 -16 -7 -13 -21 -21 -36 -21 -14 0 -31 -9 -39
-22 -13 -21 -24 -23 -103 -26 -115 -4 -141 -9 -148 -33 -4 -10 -11 -19 -16
-19 -5 0 -9 -9 -9 -20 0 -16 -5 -19 -23 -15 -23 6 -50 -14 -53 -39 -1 -6 -4
-21 -9 -33 -6 -19 -10 -20 -32 -10 -19 8 -26 8 -33 -3 -4 -7 -6 -19 -3 -26 5
-14 -14 -55 -31 -66 -6 -4 -29 -8 -51 -8 -23 0 -46 -5 -53 -12 -9 -9 -16 -9
-28 4 -15 15 -15 18 0 39 16 23 13 62 -6 86 -6 7 -8 20 -4 28 3 8 0 28 -6 43
-16 37 -16 36 -33 22 -13 -11 -16 -8 -21 19 -8 37 -24 41 -24 7 0 -31 -16 -42
-23 -16 -5 21 -41 28 -52 10 -3 -5 -33 -10 -65 -10 -33 0 -60 -5 -62 -11 -2
-6 -38 -16 -81 -22 -75 -11 -78 -10 -93 11 -16 23 -48 29 -59 12 -13 -20 -81
-10 -150 24 -86 41 -155 56 -155 32 0 -22 -9 -20 -37 6 -20 18 -26 20 -48 10
-14 -7 -43 -12 -65 -12 -22 0 -55 -9 -75 -21 -19 -12 -44 -19 -55 -16 -13 3
-24 -3 -35 -19 -11 -16 -25 -24 -45 -24 -23 0 -30 -4 -30 -20 0 -21 -15 -27
-25 -10 -4 7 -31 9 -65 7 -46 -3 -67 -11 -97 -34 -38 -30 -117 -49 -236 -58
-26 -1 -53 -8 -61 -14 -17 -15 -92 -16 -141 -3 -22 7 -76 12 -121 12 -85 0
-136 -16 -153 -49 -15 -27 -69 -25 -107 4 -32 24 -35 25 -63 10 -17 -8 -37
-15 -46 -15 -8 0 -19 -10 -24 -23 -11 -29 -30 -44 -61 -49 -14 -2 -24 -9 -22
-16 4 -20 -39 -51 -71 -52 -20 0 -30 6 -36 23 -9 23 -73 61 -123 71 -15 3 -29
15 -33 25 -4 15 -19 21 -60 26 -42 6 -58 13 -70 31 -8 13 -24 24 -34 24 -10 0
-25 7 -32 16 -7 9 -24 20 -37 25 -13 5 -22 15 -19 22 3 9 -22 11 -109 9 -68
-1 -115 2 -119 8 -3 5 -42 10 -87 10 -71 0 -80 -2 -85 -20 -6 -24 -20 -25 -45
-3 -17 15 -20 15 -48 -5 -16 -12 -41 -22 -55 -22 -18 0 -25 -5 -25 -20 0 -29
-25 -35 -58 -14 -52 34 -131 109 -136 130 -3 12 -15 24 -26 27 -11 3 -20 14
-20 24 0 11 -12 31 -27 46 -16 14 -34 33 -41 41 -7 9 -26 16 -43 16 -16 0 -51
11 -77 25 -26 14 -59 25 -73 25 -18 0 -28 6 -32 19 -4 18 -13 20 -111 18 -105
-2 -105 -2 -108 23 -2 18 -11 26 -33 30 -39 8 -85 38 -85 56 0 7 -11 16 -25
20 -13 3 -29 12 -36 20 -9 11 -15 11 -25 3 -7 -6 -18 -8 -23 -5 -5 4 -12 2
-16 -4 -3 -5 -16 -10 -29 -10 -12 0 -31 -7 -42 -15 -10 -8 -28 -15 -40 -15
-22 0 -57 -33 -68 -64 -5 -14 -12 -16 -29 -11 -42 14 -69 10 -81 -10 -6 -11
-11 -21 -11 -22 -1 -5 -153 25 -164 32 -7 3 -18 2 -26 -5 -9 -8 -19 -8 -32 -1
-10 5 -26 12 -35 15 -11 3 -15 12 -11 26 4 13 -2 32 -15 49 -12 16 -19 37 -16
48 4 13 -5 30 -25 51 -19 18 -29 36 -25 46 7 19 -46 48 -67 35 -8 -5 -20 -9
-28 -9 -10 0 -11 3 -2 14 10 11 8 19 -6 35 -9 12 -23 21 -29 21 -7 0 -36 16
-65 35 -30 19 -59 35 -65 35 -6 0 -19 9 -29 20 -22 25 -45 26 -46 3 0 -13 -3
-12 -10 6 -7 17 -15 22 -30 18 -12 -3 -22 0 -26 9 -3 8 -17 14 -32 14 -14 0
-37 9 -50 19 -13 10 -31 16 -40 14 -9 -2 -27 7 -40 21 -14 14 -29 26 -34 26
-5 0 -22 11 -39 25 -37 31 -80 32 -108 3 -11 -12 -20 -26 -20 -31 0 -6 -16 -7
-37 -2 -21 3 -52 6 -69 6 -17 -1 -37 5 -44 14 -7 8 -22 15 -35 15 -12 0 -30 9
-40 20 -10 11 -28 20 -41 20 -14 0 -25 -8 -29 -20z m6480 -1010 c3 -5 1 -10
-4 -10 -6 0 -11 5 -11 10 0 6 2 10 4 10 3 0 8 -4 11 -10z"/>
</g>
</svg>
