<?xml version="1.0" standalone="no"?>
<!DOCTYPE svg PUBLIC "-//W3C//DTD SVG 20010904//EN"
 "http://www.w3.org/TR/2001/REC-SVG-20010904/DTD/svg10.dtd">
<svg version="1.0" xmlns="http://www.w3.org/2000/svg"
 width="1280.000000pt" height="127.000000pt" viewBox="0 0 1280.000000 127.000000"
 preserveAspectRatio="xMidYMid meet">

<g transform="translate(0.000000,127.000000) scale(0.100000,-0.100000)"
fill="#000000" stroke="none">
<path d="M11484 1232 c-45 -21 -98 -52 -119 -70 -22 -20 -43 -31 -52 -28 -9 4
-47 -13 -87 -37 -72 -43 -156 -80 -209 -91 -21 -5 -38 1 -72 24 -24 16 -46 30
-49 30 -4 0 -28 15 -54 33 -26 18 -67 44 -92 58 -25 13 -49 30 -53 37 -4 6
-16 12 -26 12 -10 0 -24 7 -31 15 -29 35 -73 46 -142 36 -58 -8 -71 -14 -102
-48 -20 -21 -53 -70 -72 -109 -39 -77 -108 -157 -163 -189 -20 -12 -38 -31
-41 -45 -7 -29 -33 -37 -126 -39 -43 -1 -79 6 -124 24 -35 14 -80 25 -100 25
-26 0 -43 7 -60 25 -27 28 -48 32 -57 10 -3 -9 -22 -24 -43 -35 -21 -11 -40
-26 -43 -35 -10 -23 -45 -18 -63 10 -24 37 -81 35 -120 -6 -19 -20 -35 -28
-49 -25 -12 3 -28 -3 -42 -16 -21 -19 -26 -20 -50 -8 -16 8 -51 12 -80 11 -29
-2 -53 1 -53 6 0 10 -17 20 -95 54 -69 29 -115 66 -127 101 -13 37 -47 54
-126 62 -34 4 -84 14 -110 22 -26 8 -77 21 -113 28 -37 8 -85 24 -107 35 -23
12 -48 21 -56 21 -14 0 -60 -48 -68 -70 -2 -6 -21 -13 -43 -17 -24 -4 -47 -16
-58 -30 -25 -31 -69 -53 -106 -53 -33 0 -81 -48 -81 -81 0 -25 -18 -61 -36
-72 -7 -4 -35 -24 -61 -45 -31 -23 -61 -37 -83 -39 -19 -1 -50 -5 -68 -9 -21
-4 -43 -1 -58 7 -22 11 -30 10 -60 -6 -18 -10 -34 -22 -34 -27 0 -12 -79 -8
-118 5 -18 7 -54 31 -80 53 -26 23 -58 44 -70 48 -12 4 -33 18 -45 31 -29 31
-75 43 -83 21 -8 -20 -69 -21 -104 -1 -45 26 -69 18 -134 -43 -56 -52 -80 -65
-163 -87 -12 -3 -36 -19 -53 -35 -17 -16 -41 -32 -53 -36 -12 -4 -34 -16 -49
-27 -25 -19 -33 -20 -69 -10 -25 7 -53 8 -71 3 -16 -5 -54 -5 -84 0 -63 10
-95 2 -136 -37 -27 -25 -28 -26 -47 -9 -19 18 -21 17 -54 -3 -19 -12 -42 -33
-51 -46 -20 -30 -42 -32 -56 -4 -9 16 -20 20 -49 18 -27 -2 -46 3 -66 19 -44
35 -72 38 -95 12 -13 -15 -26 -21 -41 -17 -12 3 -34 0 -48 -7 -51 -26 -230
-42 -264 -24 -9 5 -50 10 -90 12 -91 4 -214 40 -247 71 -14 13 -36 46 -49 72
-36 70 -47 80 -104 93 -29 7 -80 27 -115 46 -58 31 -70 34 -150 34 -116 0
-215 38 -282 109 -41 43 -56 51 -158 84 -62 20 -126 46 -142 57 -40 28 -100
25 -100 -6 0 -21 -38 -36 -95 -38 -42 -1 -60 -8 -102 -39 -106 -78 -270 -137
-380 -137 -69 0 -76 -2 -133 -41 -41 -28 -88 -48 -152 -66 -51 -13 -129 -43
-173 -65 -88 -43 -108 -44 -184 -7 -23 11 -50 17 -60 14 -10 -3 -28 3 -42 14
-13 10 -50 24 -82 31 -33 6 -74 18 -92 26 -48 20 -182 29 -232 15 -23 -6 -136
-16 -250 -22 -114 -6 -224 -12 -243 -15 -113 -14 -213 -14 -236 1 -13 8 -31
15 -41 15 -9 0 -27 10 -40 22 -21 19 -34 22 -96 20 -63 -2 -75 -5 -111 -34
-44 -35 -74 -38 -155 -13 -26 7 -93 16 -151 19 -88 5 -110 10 -140 30 -19 13
-69 43 -110 66 l-75 42 -135 -21 c-158 -25 -174 -26 -189 -7 -7 8 -24 17 -39
21 -15 4 -34 12 -42 19 -25 21 -141 49 -262 65 l-58 7 0 -503 0 -503 6400 0
6400 0 0 485 0 485 -22 0 c-22 0 -43 5 -136 34 -52 17 -52 17 -97 -9 -52 -31
-89 -29 -220 12 -110 35 -167 60 -206 94 -18 16 -45 33 -59 38 -14 5 -68 26
-120 45 -52 20 -103 41 -112 46 -11 6 -47 7 -89 4 -62 -6 -73 -5 -99 15 -39
28 -61 26 -156 -17z"/>
</g>
</svg>
