<?xml version="1.0" standalone="no"?>
<!DOCTYPE svg PUBLIC "-//W3C//DTD SVG 20010904//EN"
 "http://www.w3.org/TR/2001/REC-SVG-20010904/DTD/svg10.dtd">
<svg version="1.0" xmlns="http://www.w3.org/2000/svg"
 width="2400.000000pt" height="354.000000pt" viewBox="0 0 2400.000000 354.000000"
 preserveAspectRatio="xMidYMid meet">

<g transform="translate(0.000000,354.000000) scale(0.100000,-0.100000)"
fill="#000000" stroke="none">
<path d="M1667 3482 c-10 -10 -17 -25 -17 -33 0 -8 -9 -27 -21 -44 -11 -16
-24 -40 -29 -52 -9 -21 -16 -23 -90 -23 -73 0 -82 -2 -102 -25 -22 -26 -52
-33 -63 -15 -12 19 -41 10 -71 -21 -16 -17 -61 -46 -100 -65 -38 -18 -81 -45
-95 -60 -13 -14 -36 -32 -51 -40 -16 -8 -28 -21 -28 -28 0 -21 -23 -26 -109
-26 -82 0 -123 -13 -156 -50 -15 -17 -31 -20 -105 -20 -79 0 -88 -2 -110 -25
-33 -35 -116 -35 -192 0 -29 14 -67 25 -84 25 -16 0 -54 11 -82 25 -29 14 -58
25 -65 25 -8 0 -24 11 -37 25 -13 14 -32 25 -42 25 -17 0 -18 -56 -18 -1540
l0 -1540 12000 0 12000 0 0 975 c0 973 0 975 -20 975 -11 0 -23 8 -27 18 -12
34 -36 51 -80 58 -40 6 -46 11 -66 51 -16 33 -29 46 -49 50 -18 4 -28 12 -28
24 0 21 -36 51 -82 69 -18 7 -40 19 -48 26 -28 23 -151 84 -170 84 -10 0 -22
4 -25 10 -8 13 -92 13 -100 0 -8 -13 -232 -13 -240 0 -14 23 -77 9 -146 -31
-67 -40 -69 -43 -69 -81 0 -21 -7 -52 -15 -68 -19 -37 -57 -40 -110 -10 -45
25 -56 25 -99 -2 -23 -15 -35 -31 -36 -45 0 -26 -24 -30 -46 -8 -10 10 -25 12
-47 8 -52 -10 -97 -32 -97 -48 0 -20 -84 -75 -115 -75 -14 0 -35 5 -45 10 -13
7 -27 7 -43 -1 -21 -9 -33 -7 -77 15 -28 14 -58 26 -67 26 -8 0 -28 11 -45 25
-16 14 -40 25 -53 25 -15 0 -26 7 -30 20 -3 11 -18 23 -33 27 -25 6 -87 44
-169 103 -20 14 -50 34 -68 45 -54 34 -118 84 -132 105 -9 12 -26 20 -44 20
-17 0 -45 11 -63 25 -18 14 -38 25 -44 25 -6 0 -26 18 -43 40 -32 39 -33 40
-99 40 -50 0 -71 4 -81 16 -7 9 -47 32 -89 51 -68 32 -82 35 -159 34 -55 -1
-91 -7 -105 -16 -11 -8 -30 -15 -42 -15 -11 0 -29 -10 -40 -21 -10 -12 -29
-25 -41 -30 -13 -5 -23 -15 -23 -23 0 -8 -9 -21 -20 -29 -10 -7 -24 -26 -30
-41 -8 -21 -14 -26 -31 -21 -15 5 -28 -2 -53 -28 -18 -19 -47 -42 -65 -51 -17
-9 -37 -29 -43 -44 -20 -47 -39 -62 -76 -62 -73 0 -174 -45 -226 -100 -21 -22
-46 -40 -55 -38 -10 2 -29 -5 -45 -15 -18 -12 -34 -16 -49 -11 -12 4 -29 7
-38 6 -9 -2 -19 6 -22 18 -4 16 -13 20 -45 20 -22 0 -60 9 -85 19 -56 24 -152
37 -161 22 -13 -20 -26 -11 -26 17 0 40 -28 62 -77 62 -24 0 -46 6 -53 15 -7
8 -24 15 -39 15 -15 0 -32 5 -38 11 -14 14 -144 -107 -167 -156 -15 -32 -21
-35 -59 -35 -24 0 -48 -5 -55 -12 -18 -18 -197 -23 -450 -12 -120 5 -147 3
-167 -10 -13 -9 -40 -16 -59 -16 -19 0 -38 -4 -41 -10 -3 -5 -42 -10 -86 -10
-75 0 -80 -1 -89 -24 -11 -30 -42 -41 -72 -25 -31 17 -236 25 -251 10 -6 -6
-25 -11 -43 -11 -22 0 -33 -5 -36 -18 -6 -20 -60 -32 -142 -32 -23 0 -47 -5
-52 -10 -7 -7 -22 -5 -48 5 -21 9 -46 13 -57 10 -12 -4 -36 3 -64 19 -24 14
-57 26 -74 26 -16 0 -33 5 -36 10 -3 6 -18 10 -33 10 -15 0 -43 10 -62 22 -41
26 -94 48 -133 55 -15 3 -30 9 -33 14 -3 5 -16 9 -28 9 -13 0 -29 7 -36 15 -9
11 -35 15 -101 15 -86 0 -90 1 -99 24 -10 28 -38 46 -70 46 -13 0 -24 9 -30
25 -7 17 -17 25 -34 25 -13 0 -47 11 -74 25 -36 18 -66 25 -109 25 -37 0 -67
6 -79 15 -10 8 -27 15 -36 15 -11 0 -18 8 -18 20 0 12 -15 29 -38 44 -20 13
-43 31 -51 40 -7 9 -19 16 -26 16 -17 0 -115 98 -115 115 0 9 -10 15 -24 15
-14 0 -31 9 -39 21 -8 11 -28 24 -43 28 -17 4 -30 15 -33 27 -8 43 -41 56 -82
31 -18 -10 -23 -9 -42 13 -12 14 -33 31 -47 36 -14 6 -42 19 -63 28 -21 9 -48
16 -60 16 -43 0 -98 27 -116 56 -11 18 -46 43 -94 67 -65 32 -77 43 -77 63 0
16 -8 28 -25 36 -14 6 -28 23 -32 37 -10 42 -65 91 -101 91 -20 0 -35 7 -41
19 -6 10 -24 24 -41 29 -23 8 -29 16 -27 34 1 17 -7 27 -43 44 -25 13 -52 23
-61 23 -9 1 -24 12 -33 26 -14 21 -24 25 -64 25 -27 0 -53 5 -59 11 -8 8 -25
8 -63 0 -28 -6 -83 -11 -123 -11 -47 -1 -79 -6 -91 -15 -11 -8 -35 -15 -54
-15 -22 0 -45 -9 -64 -25 -19 -16 -42 -25 -63 -25 -19 0 -37 -4 -40 -10 -3 -5
-14 -10 -24 -10 -9 0 -37 -21 -61 -46 -25 -25 -55 -50 -67 -55 -17 -6 -23 -17
-23 -39 0 -23 -4 -30 -19 -30 -11 0 -23 4 -26 10 -12 19 -41 10 -71 -21 -41
-44 -104 -69 -174 -69 -46 0 -59 -4 -65 -17 -6 -17 -7 -17 -16 0 -6 9 -18 17
-28 17 -10 0 -28 11 -41 25 -13 14 -29 25 -35 25 -6 0 -22 11 -35 25 -13 14
-31 25 -40 25 -9 0 -25 9 -35 20 -24 27 -72 50 -103 50 -27 0 -73 -13 -134
-38 -25 -10 -49 -12 -75 -7 -46 9 -56 9 -110 -1 -32 -5 -49 -2 -67 10 -14 9
-45 16 -68 16 -54 0 -112 20 -175 60 -37 24 -55 30 -80 25 -17 -3 -34 -1 -38
5 -3 5 -13 10 -22 10 -9 0 -31 11 -49 25 -18 14 -42 25 -53 25 -30 0 -110 46
-148 85 l-34 35 -112 0 c-76 0 -117 -4 -125 -12 -7 -7 -28 -11 -48 -9 -19 1
-41 -2 -47 -8 -7 -5 -28 -10 -47 -11 -107 -4 -419 -4 -439 0 -14 3 -26 -1 -31
-10 -4 -8 -16 -32 -26 -52 -10 -21 -26 -38 -35 -38 -9 0 -22 -6 -29 -14 -6 -8
-18 -12 -26 -9 -7 3 -17 -2 -20 -11 -3 -9 -13 -16 -21 -16 -17 0 -52 -39 -53
-58 0 -7 -8 -16 -17 -19 -26 -10 -183 -165 -183 -181 0 -7 -8 -15 -17 -19 -27
-9 -83 -65 -83 -82 -1 -9 -8 -25 -18 -36 -28 -32 -109 -85 -129 -85 -39 0
-103 -93 -103 -148 0 -32 -13 -48 -45 -54 -14 -2 -19 -10 -17 -26 3 -23 -21
-32 -33 -12 -3 6 -35 10 -71 10 l-64 0 -62 59 c-47 46 -70 61 -102 67 -23 3
-45 10 -51 14 -13 11 -188 20 -247 13 -32 -4 -58 -15 -84 -37 -21 -17 -45 -31
-53 -31 -8 0 -18 -11 -21 -25 -5 -21 -12 -25 -47 -28 -27 -2 -48 -11 -63 -28
-18 -19 -34 -24 -70 -24 -35 0 -70 -12 -154 -54 -59 -30 -118 -63 -130 -75
-11 -11 -42 -27 -69 -36 -43 -14 -49 -14 -69 0 -18 12 -52 15 -155 15 -121 0
-138 -2 -185 -25 -46 -22 -64 -25 -174 -25 -96 0 -124 -3 -134 -15 -9 -10 -33
-15 -79 -16 -47 0 -75 -6 -96 -20 -16 -10 -37 -22 -45 -25 -20 -8 -72 -33 -90
-43 -8 -4 -25 -13 -37 -19 -14 -7 -72 -12 -144 -12 -117 0 -123 1 -145 25
l-23 25 -385 0 c-246 0 -387 4 -391 10 -3 6 -29 10 -56 10 -44 0 -51 3 -59 25
-9 25 -12 25 -117 25 -70 0 -123 6 -151 15 -49 17 -77 8 -121 -39 -15 -16 -35
-26 -52 -26 -37 0 -140 27 -153 40 -13 13 -53 13 -61 0 -3 -5 -17 -10 -31 -10
-24 0 -30 2 -92 33 -19 9 -46 17 -61 17 -20 0 -31 7 -39 25 -6 14 -17 25 -23
25 -6 0 -27 14 -46 30 -40 36 -88 40 -126 10 -14 -11 -34 -20 -45 -20 -12 0
-24 -4 -27 -10 -3 -5 -15 -10 -27 -10 -12 0 -22 -8 -25 -21 -3 -11 -15 -25
-27 -30 -11 -5 -28 -14 -36 -20 -23 -16 -90 15 -90 41 0 12 -10 24 -24 29 -13
5 -26 19 -29 30 -3 15 -14 21 -34 22 -15 1 -34 2 -40 3 -7 0 -32 22 -56 49
-36 39 -50 47 -79 47 -24 0 -42 8 -58 25 -13 14 -32 25 -42 25 -10 0 -28 6
-41 12 -53 30 -125 78 -136 92 -8 9 -19 16 -26 16 -8 0 -27 12 -44 26 l-31 26
-9 -25 c-10 -26 -49 -38 -118 -38 -18 0 -33 -4 -33 -8 0 -5 -35 -8 -77 -7 -54
1 -80 -2 -87 -12 -6 -8 -29 -32 -51 -53 -36 -36 -44 -39 -77 -34 -20 3 -49 0
-63 -7 -21 -9 -31 -9 -46 0 -10 7 -26 12 -34 12 -8 0 -15 5 -15 10 0 14 -43
13 -75 -2 -19 -9 -31 -8 -49 1 -16 9 -29 10 -42 3 -29 -14 -110 -22 -120 -12
-12 12 -125 70 -136 70 -5 0 -31 16 -60 35 -28 19 -62 38 -77 42 -14 3 -39 17
-55 30 -26 22 -36 24 -90 19 -34 -3 -74 -5 -90 -5 -19 0 -41 -11 -62 -32 -29
-28 -35 -30 -49 -19 -9 8 -14 22 -12 32 5 19 -29 40 -85 52 -18 4 -28 13 -28
24 0 24 -48 69 -83 77 -15 4 -30 11 -33 16 -8 14 -58 10 -80 -6 -31 -23 -54
-18 -100 25 -36 33 -51 40 -83 40 -29 0 -44 6 -54 20 -28 41 -80 58 -156 52
-51 -3 -81 0 -111 12 -22 9 -51 16 -63 16 -14 0 -39 17 -62 41 -36 37 -43 40
-78 35 -24 -4 -48 -1 -67 9 -16 8 -42 15 -59 15 -16 0 -33 5 -36 10 -3 6 -15
10 -27 10 -11 0 -32 6 -46 14 -108 56 -230 106 -277 113 -39 6 -155 61 -155
74 0 9 -22 20 -123 63 -21 9 -50 16 -65 16 -19 0 -39 12 -62 35 -38 39 -59 44
-83 17z"/>
</g>
</svg>
