<?xml version="1.0" standalone="no"?>
<!DOCTYPE svg PUBLIC "-//W3C//DTD SVG 20010904//EN"
 "http://www.w3.org/TR/2001/REC-SVG-20010904/DTD/svg10.dtd">
<svg version="1.0" xmlns="http://www.w3.org/2000/svg"
 width="1500.000000pt" height="141.000000pt" viewBox="0 0 1500.000000 141.000000"
 preserveAspectRatio="xMidYMid meet">

<g transform="translate(0.000000,141.000000) scale(0.100000,-0.100000)"
fill="#000000" stroke="none">
<path d="M7080 1400 c0 -5 -11 -10 -25 -10 -50 0 -24 -20 28 -21 l52 -1 -43
-10 c-31 -7 -47 -6 -57 2 -8 7 -26 9 -44 5 -27 -6 -30 -10 -33 -53 -3 -46 -3
-47 -35 -44 l-33 4 0 -91 c0 -49 -4 -93 -10 -96 -5 -3 -10 -37 -10 -76 0 -39
-4 -69 -10 -69 -5 0 -10 -16 -10 -35 l0 -34 -72 -3 -73 -3 -2 -262 c-1 -151
-6 -270 -12 -281 -5 -10 -8 -28 -5 -39 7 -26 -12 -39 -32 -22 -11 9 -18 9 -26
1 -7 -7 -16 -12 -20 -12 -4 0 -8 137 -8 304 0 193 -4 307 -10 311 -5 3 -10 1
-10 -4 0 -6 -9 -11 -20 -11 -17 0 -20 7 -20 49 0 32 -5 51 -14 54 -14 6 -21
37 -34 156 -7 67 -24 90 -56 78 -12 -5 -16 -20 -16 -66 0 -33 -4 -63 -10 -66
-5 -3 -10 -18 -10 -33 -1 -36 -27 -72 -39 -53 -5 7 -17 11 -27 9 -18 -3 -19
-18 -25 -198 -3 -107 -6 -196 -7 -197 -1 -2 -20 -3 -42 -3 -33 0 -40 -3 -40
-19 0 -11 -4 -23 -10 -26 -5 -3 -10 -30 -10 -59 0 -28 -5 -57 -11 -63 -8 -8
-8 -13 0 -17 22 -14 10 -86 -15 -86 -10 0 -14 12 -14 39 0 22 -4 43 -10 46 -6
3 -10 49 -10 101 0 75 -3 96 -15 100 -9 4 -15 19 -15 40 0 34 -1 34 -45 34
-42 0 -45 2 -45 26 0 24 -2 25 -47 22 -39 -2 -50 -7 -58 -25 -7 -17 -18 -23
-40 -23 -41 0 -55 -34 -55 -135 0 -69 -3 -82 -20 -93 -19 -11 -20 -23 -20
-173 0 -140 -2 -160 -14 -149 -8 6 -16 26 -18 43 -2 27 -8 33 -30 35 -16 2
-28 9 -28 15 -1 7 -9 2 -19 -11 -11 -12 -22 -22 -25 -22 -3 0 -7 98 -8 218 -3
187 -5 216 -18 213 -8 -2 -43 -6 -77 -9 -53 -4 -63 -2 -63 12 0 22 -121 23
-140 1 -10 -12 -48 -15 -224 -15 -142 0 -216 4 -223 11 -27 27 -33 -4 -33
-172 l0 -169 -55 0 c-30 0 -55 -4 -55 -10 0 -5 -7 -10 -15 -10 -9 0 -15 -9
-15 -25 0 -18 -5 -25 -20 -25 -11 0 -20 3 -20 8 0 16 -65 42 -107 42 -45 0
-73 16 -73 43 0 20 -20 33 -52 31 -15 0 -35 7 -44 17 -10 11 -23 19 -29 19 -7
0 -18 6 -24 14 -16 18 -87 56 -106 56 -18 0 -19 12 -4 27 13 13 4 33 -17 33
-12 0 -14 26 -13 156 0 129 -2 160 -15 172 -9 9 -19 12 -23 8 -5 -4 -9 -81
-11 -172 l-3 -164 -48 0 c-57 0 -101 -19 -101 -42 0 -12 -8 -18 -25 -18 -25 0
-25 -1 -25 -80 0 -50 4 -80 11 -80 5 0 7 -5 4 -10 -3 -6 -13 -10 -21 -10 -12
0 -14 37 -14 234 0 236 -8 302 -33 277 -8 -8 -13 -82 -17 -249 l-5 -237 -35 0
c-31 0 -35 3 -38 27 -2 20 -10 30 -28 34 -14 4 -24 13 -24 24 0 10 -8 21 -17
25 -10 3 -30 16 -44 29 -25 22 -26 26 -29 167 -4 201 -3 190 -18 184 -8 -3
-16 -5 -18 -5 -2 0 -4 -10 -4 -23 0 -13 -5 -28 -12 -35 -9 -9 -9 -18 0 -37 7
-16 9 -33 4 -43 -5 -9 -9 -50 -8 -90 1 -71 -5 -94 -19 -72 -9 15 -168 13 -184
-2 -10 -11 -12 12 -11 112 2 198 3 190 -20 190 -13 0 -20 -7 -20 -18 0 -10 -6
-24 -12 -30 -10 -10 -10 -14 0 -21 13 -8 13 -35 -1 -225 -1 -24 -8 -41 -17
-44 -8 -3 -23 -14 -32 -25 -18 -20 -18 -20 -38 3 -17 20 -20 21 -26 6 -4 -9
-4 -30 0 -46 3 -17 1 -30 -4 -30 -6 0 -10 -11 -10 -23 0 -13 -9 -32 -20 -42
-11 -10 -20 -24 -20 -32 0 -9 -15 -13 -53 -13 -71 0 -87 17 -87 94 0 43 -4 58
-16 63 -9 3 -19 1 -23 -5 -12 -21 -66 -25 -84 -8 -22 22 -67 20 -94 -5 -17
-17 -25 -19 -36 -10 -11 9 -17 8 -27 -4 -7 -8 -25 -15 -40 -15 -38 0 -60 -9
-60 -25 0 -8 -12 -15 -27 -17 -26 -3 -43 -24 -57 -70 -4 -14 -16 -18 -50 -18
-25 0 -48 5 -52 11 -4 8 -9 7 -15 -2 -7 -12 -11 -11 -25 3 -14 14 -15 20 -5
32 19 23 -23 66 -65 66 -18 0 -36 5 -39 10 -9 15 -23 12 -42 -10 -10 -11 -23
-20 -30 -20 -6 0 -17 -16 -24 -35 -13 -35 -33 -46 -42 -22 -6 16 -167 23 -167
7 0 -5 -5 -10 -11 -10 -14 0 -39 26 -39 40 0 7 -6 10 -14 7 -8 -3 -22 3 -32
14 -19 21 -40 25 -46 8 -2 -7 -17 -12 -33 -13 -26 -1 -30 -5 -33 -31 -5 -49
-42 -75 -106 -75 -30 0 -58 -4 -61 -10 -4 -6 -65 -10 -151 -10 -117 0 -148 3
-161 15 -9 9 -23 13 -34 10 -11 -4 -19 -2 -19 4 0 18 -26 12 -45 -9 -20 -22
-71 -27 -78 -8 -3 10 -7 10 -20 0 -9 -8 -24 -11 -34 -8 -10 3 -31 -1 -47 -9
-15 -8 -30 -15 -32 -15 -8 0 -34 61 -34 80 0 13 -4 19 -11 14 -6 -3 -9 -19 -6
-34 8 -38 -7 -48 -59 -42 -33 3 -49 0 -63 -12 -16 -14 -28 -16 -67 -9 -50 9
-94 -2 -94 -22 0 -5 -7 -18 -15 -29 -13 -17 -14 -17 -36 3 -20 18 -35 21 -111
21 -68 0 -90 -3 -94 -14 -3 -8 -12 -12 -20 -9 -8 3 -21 0 -29 -7 -12 -10 -18
-10 -30 0 -12 10 -18 10 -30 0 -12 -10 -15 -10 -15 4 0 9 -4 16 -10 16 -5 0
-10 -7 -10 -15 0 -8 -4 -15 -10 -15 -5 0 -10 4 -10 8 0 4 -18 8 -40 9 -40 2
-62 15 -72 43 -3 10 -16 14 -40 12 -20 -2 -39 1 -43 7 -3 6 -22 11 -41 11
l-34 0 0 -80 0 -80 7500 0 7500 0 0 80 c0 47 -4 80 -10 80 -5 0 -10 -6 -10
-12 0 -7 -5 -20 -10 -28 -8 -12 -16 -8 -48 23 -37 36 -39 37 -67 23 -16 -8
-32 -13 -37 -10 -4 3 -11 -2 -14 -10 -3 -9 -16 -16 -28 -16 -12 0 -28 -9 -36
-20 -19 -26 -30 -25 -30 1 0 11 -4 17 -10 14 -6 -4 -10 -15 -8 -25 2 -11 -1
-19 -7 -20 -5 0 -12 10 -13 22 -6 39 -22 50 -64 44 -23 -4 -38 -2 -38 4 0 5
-8 10 -18 10 -10 0 -24 9 -32 20 -9 13 -26 20 -47 20 -17 0 -35 4 -38 10 -3 5
-17 10 -30 10 -38 0 -75 41 -75 83 0 43 -19 57 -78 57 -47 0 -59 -12 -64 -65
-3 -35 -6 -40 -30 -43 -25 -3 -28 -8 -28 -38 0 -37 -2 -37 -57 -17 -7 3 -13 1
-13 -4 0 -12 -45 -33 -70 -33 -11 0 -20 5 -20 10 0 6 -19 10 -41 10 -30 0 -47
6 -60 22 -17 19 -22 20 -44 8 -20 -10 -28 -11 -37 -2 -15 15 -68 16 -68 2 0
-5 -13 -10 -30 -10 -24 0 -30 -4 -30 -21 0 -18 -2 -19 -15 -9 -16 13 -24 11
-87 -21 -10 -5 -124 -9 -253 -9 l-235 0 0 208 c0 148 -3 211 -12 220 -7 7 -36
12 -64 12 -29 0 -56 4 -59 10 -3 5 -28 10 -56 10 -46 0 -49 2 -49 25 l0 25
-190 0 c-177 0 -190 1 -190 18 0 27 -42 46 -84 39 -38 -6 -40 -3 -36 41 2 33
-17 52 -54 52 -45 0 -56 -16 -56 -77 0 -59 -14 -68 -52 -33 -19 18 -36 20
-134 20 -65 0 -115 -4 -119 -10 -3 -6 -41 -10 -84 -10 -70 0 -79 -2 -84 -20
-3 -13 -14 -20 -31 -20 -15 0 -30 -8 -36 -21 -9 -15 -19 -20 -43 -17 l-32 3
-5 -170 -5 -170 -77 -3 -78 -3 0 125 c0 72 -4 127 -10 131 -5 3 -10 37 -10 74
0 39 -5 72 -12 79 -8 8 -62 12 -178 12 l-165 0 -12 27 c-7 15 -13 46 -13 69 0
24 -4 46 -10 49 -5 3 -10 23 -10 44 0 22 -6 44 -15 51 -8 7 -15 19 -15 26 0
21 -42 33 -99 29 -28 -2 -53 1 -57 6 -9 15 -44 -20 -44 -43 0 -11 -9 -22 -20
-25 -16 -4 -20 -14 -20 -49 0 -23 -5 -46 -11 -50 -7 -4 -9 -24 -6 -50 2 -25 1
-47 -4 -50 -5 -3 -9 -72 -9 -155 l0 -149 -49 0 c-59 0 -81 -7 -81 -26 0 -8 -6
-14 -14 -14 -17 0 -48 39 -40 51 2 4 0 10 -6 14 -5 3 -10 21 -10 39 0 17 -5
37 -12 44 -15 15 -64 16 -73 2 -3 -5 -22 -10 -41 -10 -33 0 -34 1 -34 39 0 22
-4 43 -10 46 -5 3 -10 41 -10 84 0 65 -3 81 -20 96 -12 11 -20 31 -20 50 0 24
-5 34 -19 38 -14 3 -17 11 -14 31 4 19 0 27 -13 32 -11 3 -29 11 -41 16 -30
15 -54 3 -52 -24 4 -50 0 -58 -31 -58 -20 0 -30 5 -30 15 0 8 -7 15 -15 15 -8
0 -15 -7 -15 -15 0 -8 -4 -15 -10 -15 -5 0 -10 -15 -10 -34 0 -19 -4 -38 -10
-41 -5 -3 -10 -28 -10 -55 0 -27 -4 -52 -10 -55 -5 -3 -10 -37 -10 -76 0 -67
-1 -69 -25 -69 l-25 0 0 -137 c0 -157 -7 -175 -65 -166 -19 3 -35 1 -39 -6
-12 -19 -26 -12 -26 14 0 20 -5 25 -25 25 -22 0 -25 4 -25 35 0 32 -3 35 -28
35 -15 0 -33 -5 -40 -12 -6 -6 -20 -12 -29 -13 -133 -13 -123 -21 -123 98 0
95 -2 105 -23 125 -19 18 -35 22 -89 22 -42 0 -68 4 -70 12 -4 12 -49 17 -168
21 l-65 2 -1 -50 c-2 -77 -3 -80 -19 -101 -13 -17 -14 -13 -14 49 1 37 4 69 8
72 16 9 3 51 -19 62 -12 6 -26 17 -31 24 -6 11 -12 10 -27 -4 -36 -33 -101
-13 -86 27 14 36 -82 9 -121 -34 -16 -18 -19 -35 -16 -106 2 -55 -1 -84 -8
-84 -12 0 -12 1 -15 85 -1 52 -4 61 -23 70 -19 8 -23 18 -23 51 0 32 -6 46
-30 69 -22 22 -30 38 -30 65 0 20 -5 41 -12 48 -7 7 -8 12 -3 12 5 0 -6 16
-25 35 l-34 35 -98 0 c-59 0 -98 -4 -98 -10 0 -5 -7 -10 -15 -10 -9 0 -18 -7
-21 -15 -4 -8 -12 -15 -20 -15 -8 0 -14 -10 -14 -23 0 -13 -4 -27 -10 -33 -5
-5 -11 -61 -14 -124 -5 -134 -9 -148 -42 -148 -18 1 -24 6 -24 24 0 12 -4 26
-10 29 -5 3 -10 33 -10 65 0 32 -4 62 -10 65 -5 3 -10 32 -10 64 0 44 -5 62
-20 79 -25 27 -39 28 -47 4 -3 -9 -13 -25 -21 -35 -11 -12 -15 -35 -13 -72 1
-34 -2 -55 -8 -55 -8 0 -11 66 -11 205 l0 205 -120 0 c-95 0 -120 3 -120 14 0
13 -74 96 -85 96 -3 0 -5 -9 -5 -20 0 -11 -6 -20 -13 -20 -7 0 -30 -16 -50
-35 -20 -19 -46 -35 -57 -35 -17 0 -20 -7 -20 -39 0 -22 -4 -43 -10 -46 -6 -4
-10 -60 -10 -136 0 -71 -3 -129 -6 -129 -3 0 -14 5 -24 10 -16 8 -18 8 -14 -5
4 -10 0 -15 -14 -15 -12 0 -23 4 -26 9 -3 5 -16 11 -29 13 -20 4 -23 1 -19
-20 4 -22 2 -24 -21 -20 -46 9 -51 -3 -53 -116 -1 -58 -5 -110 -9 -116 -4 -6
-6 -34 -5 -63 2 -29 2 -70 1 -92 -1 -36 -3 -38 -15 -22 -9 12 -16 14 -21 8 -3
-6 -13 -11 -21 -11 -12 0 -14 47 -14 315 0 203 -4 315 -10 315 -5 0 -10 18
-10 39 0 22 -5 43 -10 46 -8 5 -8 11 0 20 8 9 8 15 0 20 -6 3 -10 44 -10 96
l0 91 -32 -4 c-32 -3 -33 -2 -36 39 -3 36 -7 43 -35 54 -18 7 -34 15 -37 18
-7 8 -48 31 -55 31 -3 0 -5 -4 -5 -10z"/>
</g>
</svg>
