<?xml version="1.0" standalone="no"?>
<!DOCTYPE svg PUBLIC "-//W3C//DTD SVG 20010904//EN"
 "http://www.w3.org/TR/2001/REC-SVG-20010904/DTD/svg10.dtd">
<svg version="1.0" xmlns="http://www.w3.org/2000/svg"
 width="1000.000000pt" height="176.000000pt" viewBox="0 0 1000.000000 176.000000"
 preserveAspectRatio="xMidYMid meet">

<g transform="translate(0.000000,176.000000) scale(0.100000,-0.100000)"
fill="#000000" stroke="none">
<path d="M902 1653 c-1 -77 -6 -113 -14 -117 -9 -4 -9 -8 -3 -11 6 -3 9 -20 7
-39 -3 -27 -7 -33 -23 -29 -17 5 -19 16 -21 97 -1 52 -3 70 -5 41 -2 -27 -6
-57 -10 -65 -3 -8 -5 -19 -4 -24 7 -32 -41 -112 -61 -100 -6 4 -13 -193 -11
-283 0 -6 -9 -14 -22 -17 -21 -5 -22 -12 -28 -133 -4 -71 -7 -165 -7 -209 0
-78 -1 -82 -24 -88 -29 -7 -36 -53 -36 -237 0 -151 -10 -280 -21 -273 -4 2
-11 -2 -16 -10 -5 -10 -32 -16 -84 -19 l-77 -5 6 165 5 165 -24 -2 c-66 -6
-63 -15 -55 143 8 158 -1 202 -40 217 -16 6 -22 15 -18 25 5 12 -3 15 -40 15
-32 0 -48 -5 -52 -15 -4 -8 -14 -15 -24 -15 -33 0 -49 -57 -56 -201 -5 -100
-10 -137 -21 -146 -8 -6 -17 -29 -20 -51 -4 -33 -9 -39 -24 -35 -13 4 -19 0
-19 -11 0 -10 -11 -19 -30 -23 l-30 -5 0 -179 0 -179 3021 0 3020 0 -3 57 c-3
55 -5 59 -83 147 l-80 91 -6 -55 c-4 -43 -6 -47 -8 -20 -1 19 -6 44 -10 55 -7
17 -11 15 -36 -23 -15 -23 -31 -42 -35 -42 -4 0 -11 -12 -14 -26 -5 -20 -10
-23 -20 -15 -9 7 -16 7 -24 -1 -8 -8 -12 -8 -12 -1 0 22 -63 41 -112 34 l-47
-8 -3 96 -3 96 -49 3 c-73 6 -116 -5 -116 -28 0 -16 -7 -20 -30 -20 -23 0 -30
-5 -30 -19 0 -19 -7 -20 -130 -16 -71 3 -137 2 -146 -2 -8 -3 -20 -16 -25 -29
-11 -30 -36 -31 -66 -3 -12 12 -36 22 -53 23 -18 1 -28 6 -26 13 9 22 -19 46
-47 39 -14 -3 -29 -1 -32 4 -6 10 -169 5 -186 -6 -5 -3 -9 -29 -9 -58 0 -49
-2 -55 -27 -65 -23 -9 -28 -18 -29 -46 0 -20 -6 -41 -13 -48 -7 -6 -12 -7 -11
-2 2 6 2 146 1 313 -1 296 -1 302 -21 302 -16 0 -19 5 -14 24 6 24 -16 51 -24
28 -2 -7 -8 -9 -13 -6 -12 7 -120 -5 -137 -15 -15 -9 -23 -271 -8 -272 6 0 1
-5 -11 -11 -13 -6 -24 -20 -24 -32 -1 -16 -2 -17 -6 -4 -4 15 -6 15 -24 -3
-13 -13 -19 -33 -19 -63 0 -31 -5 -46 -16 -50 -29 -11 -34 -6 -34 32 l0 38
-84 12 c-46 7 -99 19 -118 26 -48 21 -137 24 -149 5 -6 -10 -9 -10 -9 -1 0 9
-5 10 -17 4 -10 -5 -23 -7 -30 -5 -7 2 -20 0 -29 -5 -12 -7 -26 -6 -42 1 -18
8 -26 8 -33 -4 -8 -11 -12 -11 -16 -1 -6 15 -33 16 -33 1 0 -7 -15 8 -34 33
-31 40 -61 57 -104 58 -4 0 -9 35 -12 77 l-5 77 -38 9 c-20 5 -45 6 -55 2 -9
-4 -32 -7 -49 -6 -18 2 -33 -2 -33 -7 0 -4 -34 -8 -75 -7 -42 1 -78 -1 -80 -5
-3 -5 -14 -6 -25 -3 -19 5 -20 0 -21 -111 -1 -64 -3 -120 -4 -126 -1 -5 -3
-55 -4 -111 -1 -89 -3 -100 -17 -95 -9 4 -23 1 -30 -5 -12 -9 -14 -2 -14 45 0
31 5 56 10 56 6 0 10 5 10 10 0 6 -14 10 -31 10 -18 0 -37 6 -43 14 -6 7 -37
16 -68 19 -47 5 -60 2 -68 -11 -5 -10 -10 -12 -10 -4 0 6 -7 12 -16 12 -15 0
-16 13 -11 115 l5 114 -41 5 c-23 3 -58 7 -77 10 -19 2 -55 9 -80 16 -25 6
-62 10 -82 8 -21 -2 -39 0 -40 4 -2 4 -32 1 -68 -6 -36 -8 -70 -12 -77 -9 -29
11 -38 -40 -44 -249 -1 -68 -4 -78 -20 -78 -10 0 -21 5 -24 10 -5 8 -11 7 -21
-1 -9 -7 -14 -7 -14 -1 0 10 -61 8 -79 -2 -5 -4 -9 6 -9 21 1 16 -2 36 -5 46
-4 9 -9 23 -11 31 -9 28 -176 31 -176 2 0 -7 -3 -6 -9 2 -4 7 -14 12 -22 10
-11 -2 -15 18 -17 103 -3 102 -4 107 -23 102 -14 -4 -20 -1 -19 8 6 41 -15 55
-54 37 -14 -6 -33 -7 -43 -3 -10 5 -33 10 -51 12 -27 4 -34 1 -39 -16 -3 -11
-9 -18 -14 -15 -5 3 -9 -2 -9 -11 0 -11 -5 -15 -15 -11 -11 4 -15 -2 -16 -27
0 -18 -4 -81 -10 -142 -5 -60 -12 -153 -15 -205 -4 -52 -8 -97 -10 -99 -2 -2
-4 32 -4 77 0 44 -4 84 -10 87 -5 3 -10 17 -10 30 0 12 -8 26 -17 30 -25 10
-274 15 -268 5 3 -5 1 -10 -5 -12 -5 -2 -10 -47 -11 -103 -2 -118 -8 -135 -52
-136 l-32 -1 33 -8 c47 -11 51 -20 8 -16 -21 1 -42 9 -47 17 -5 8 -9 9 -9 2 0
-6 -9 -9 -22 -5 -14 3 -19 2 -14 -6 4 -7 3 -12 -3 -12 -7 0 -8 94 -4 285 l6
285 -28 0 -28 0 7 203 7 202 -46 20 -47 19 7 156 7 157 -31 6 -31 6 -3 163
c-2 130 -3 140 -5 51z"/>
<path d="M841 1664 c0 -11 3 -14 6 -6 3 7 2 16 -1 19 -3 4 -6 -2 -5 -13z"/>
<path d="M9153 1317 l-33 -10 -2 -121 c-1 -67 -1 -132 0 -146 0 -14 3 -194 6
-401 l6 -376 -27 4 c-80 12 -116 10 -120 -7 -3 -13 -17 -16 -66 -15 -34 0 -75
-5 -90 -13 -17 -8 -41 -10 -62 -6 -31 6 -35 4 -35 -15 0 -19 -5 -22 -40 -19
-34 2 -40 5 -40 24 0 13 -7 29 -15 38 -18 18 -20 30 -2 20 7 -4 9 -3 4 2 -5 5
-12 9 -15 10 -4 0 -15 4 -26 9 -10 4 -21 4 -25 -2 -30 -47 -64 -74 -98 -79
-21 -3 -42 -8 -46 -11 -4 -3 -13 0 -20 6 -26 21 -44 -12 -46 -81 -1 -29 -21
-40 -21 -12 0 10 -6 14 -15 10 -13 -5 -15 13 -16 119 -1 69 -3 130 -4 135 -1
6 -3 71 -4 145 l-1 135 -45 -6 -45 -5 0 36 c0 19 0 38 1 41 2 14 -27 24 -68
24 -23 0 -45 5 -48 10 -7 12 -95 9 -95 -2 0 -18 -80 -28 -125 -17 -43 11 -98
10 -335 -6 -84 -6 -90 -9 -90 -43 0 -16 -6 -35 -14 -41 -10 -9 -14 -71 -18
-282 -4 -181 -9 -274 -17 -282 -8 -8 -11 83 -12 353 -1 201 -4 455 -8 564 l-6
200 -45 11 c-25 7 -54 16 -65 22 -11 6 -51 11 -89 12 -59 2 -71 -1 -83 -19 -8
-11 -25 -20 -38 -20 -58 0 -55 21 -55 -389 0 -208 -3 -453 -7 -545 -5 -148 -8
-168 -25 -177 -15 -8 -18 -6 -17 13 0 13 3 17 6 11 2 -7 9 -13 14 -13 14 0 11
27 -5 42 -10 10 -14 58 -15 193 -1 99 -5 191 -8 205 -17 75 -50 152 -88 206
-24 33 -45 73 -48 90 -4 27 -4 27 -6 -6 0 -20 -8 -45 -16 -56 -8 -12 -11 -24
-8 -28 3 -3 0 -6 -9 -6 -14 0 -42 -49 -84 -145 -13 -30 -17 -70 -18 -171 -1
-99 -4 -130 -13 -123 -8 7 -11 82 -12 252 -2 279 -8 367 -27 367 -7 0 -15 8
-17 18 -4 16 -5 16 -6 0 -1 -13 -9 -18 -30 -18 -29 0 -50 -25 -28 -34 7 -2
-12 -5 -40 -5 -29 -1 -53 -2 -54 -3 0 -2 -3 -122 -6 -268 -3 -146 -6 -266 -8
-268 -2 -2 -30 -5 -63 -6 -66 -4 -82 -10 -82 -32 0 -17 -38 -19 -77 -2 -45 18
-60 19 -90 3 -15 -8 -38 -15 -51 -15 -21 0 -23 -4 -21 -54 2 -34 -3 -61 -11
-71 -11 -14 -11 -16 1 -13 11 2 15 -15 17 -80 l3 -82 1974 0 1975 0 0 215 c0
208 -1 215 -20 215 -11 0 -20 -6 -20 -12 0 -8 -3 -9 -8 -3 -26 36 -113 46
-174 21 -47 -20 -60 -38 -50 -67 5 -13 8 -64 7 -114 -2 -132 -4 -152 -13 -138
-4 6 -21 13 -37 16 -33 4 -31 -1 -43 127 -7 71 -8 75 -32 75 -20 0 -26 6 -28
27 -2 15 -11 28 -21 31 -15 3 -19 19 -24 88 -4 46 -11 85 -17 87 -6 2 -17 11
-25 19 -9 8 -23 16 -33 17 -15 3 -17 14 -13 92 l3 90 -51 16 c-29 9 -53 12
-57 7 -3 -5 -11 -9 -18 -9 -10 0 -14 57 -19 256 -3 141 -7 258 -10 260 -9 9
-115 10 -144 1z"/>
<path d="M6031 134 c0 -11 3 -14 6 -6 3 7 2 16 -1 19 -3 4 -6 -2 -5 -13z"/>
</g>
</svg>
